<?xml version="1.0" encoding="utf-8"?>
<!-- Generator: Adobe Illustrator 21.1.0, SVG Export Plug-In . SVG Version: 6.00 Build 0)  -->
<svg width="500px" height="500px" version="1.1" id="Layer_1" xmlns="http://www.w3.org/2000/svg" xmlns:xlink="http://www.w3.org/1999/xlink" x="0px" y="0px"
	 viewBox="0 0 500 500" style="enable-background:new 0 0 500 500;" xml:space="preserve">
<style type="text/css">
	.st0{opacity:4.000000e-02;fill:#FFFFFF;}
	.st1{opacity:4.000000e-02;}
	.st2{fill:#FFFFFF;}
</style>
<path class="st0" d="M542.8,73.9l-268.5,155c-11.9,6.9-27.3,2.8-34.2-9.2l0,0c-6.9-11.9-2.8-27.3,9.2-34.2l268.5-155
	c11.9-6.9,27.3-2.8,34.2,9.2v0C558.8,51.6,554.7,67,542.8,73.9z"/>
<path class="st0" d="M651.2-61.6l-268.5,155c-11.9,6.9-27.3,2.8-34.2-9.2v0c-6.9-11.9-2.8-27.3,9.2-34.2l268.5-155
	c11.9-6.9,27.3-2.8,34.2,9.2l0,0C667.2-83.9,663.1-68.5,651.2-61.6z"/>
<path class="st0" d="M537,375.9l-268.5,155c-11.9,6.9-27.3,2.8-34.2-9.2h0c-6.9-11.9-2.8-27.3,9.2-34.2l268.5-155
	c11.9-6.9,27.3-2.8,34.2,9.2l0,0C553.1,353.6,548.9,369,537,375.9z"/>
<path class="st0" d="M731.4,339.6l-268.5,155c-11.9,6.9-27.3,2.8-34.2-9.2l0,0c-6.9-11.9-2.8-27.3,9.2-34.2l268.5-155
	c11.9-6.9,27.3-2.8,34.2,9.2v0C747.4,317.3,743.3,332.7,731.4,339.6z"/>
<g class="st1">
	<path class="st2" d="M408.7,225.2l-268.5,155c-11.9,6.9-27.3,2.8-34.2-9.2l0,0c-6.9-11.9-2.8-27.3,9.2-34.2l268.5-155
		c11.9-6.9,27.3-2.8,34.2,9.2l0,0C424.7,203,420.6,218.3,408.7,225.2z"/>
	<path class="st2" d="M731.4,38.9l-268.5,155c-11.9,6.9-27.3,2.8-34.2-9.2l0,0c-6.9-11.9-2.8-27.3,9.2-34.2l268.5-155
		c11.9-6.9,27.3-2.8,34.2,9.2v0C747.4,16.7,743.3,32,731.4,38.9z"/>
</g>
<g class="st1">
	<path class="st2" d="M313.4,354.3l-268.5,155c-11.9,6.9-27.3,2.8-34.2-9.2l0,0C3.9,488.3,8,472.9,19.9,466l268.5-155
		c11.9-6.9,27.3-2.8,34.2,9.2l0,0C329.4,332.1,325.3,347.5,313.4,354.3z"/>
	<path class="st2" d="M636.1,168.1l-268.5,155c-11.9,6.9-27.3,2.8-34.2-9.2l0,0c-6.9-11.9-2.8-27.3,9.2-34.2l268.5-155
		c11.9-6.9,27.3-2.8,34.2,9.2l0,0C652.1,145.8,648,161.2,636.1,168.1z"/>
</g>
<g class="st1">
	<path class="st2" d="M254,463.8l-268.5,155c-11.9,6.9-27.3,2.8-34.2-9.2h0c-6.9-11.9-2.8-27.3,9.2-34.2l268.5-155
		c11.9-6.9,27.3-2.8,34.2,9.2l0,0C270,441.6,265.9,456.9,254,463.8z"/>
	<path class="st2" d="M576.6,277.5l-268.5,155c-11.9,6.9-27.3,2.8-34.2-9.2l0,0c-6.9-11.9-2.8-27.3,9.2-34.2l268.5-155
		c11.9-6.9,27.3-2.8,34.2,9.2v0C592.6,255.3,588.5,270.6,576.6,277.5z"/>
</g>
</svg>
