<?xml version="1.0" encoding="utf-8"?>
<!-- Generator: Adobe Illustrator 24.0.1, SVG Export Plug-In . SVG Version: 6.00 Build 0)  -->
<svg version="1.1" id="Layer_1" xmlns="http://www.w3.org/2000/svg" xmlns:xlink="http://www.w3.org/1999/xlink" x="0px" y="0px"
	 width="500px" height="500px" viewBox="0 0 500 500" style="enable-background:new 0 0 500 500;" xml:space="preserve">
<style type="text/css">
	.st0{opacity:4.000000e-02;}
	.st1{fill:#FFFFFF;}
</style>
<g class="st0">
	<path class="st1" d="M124.2,135.2L124.2,135.2c4.3-7.4,13.8-10,21.1-5.7L310.8,225c7.4,4.3,10,13.8,5.7,21.1l0,0
		c-4.3,7.4-13.8,10-21.1,5.7l-165.5-95.5C122.6,152,120,142.6,124.2,135.2z"/>
	<path class="st1" d="M57.4,51.7L57.4,51.7c4.3-7.4,13.8-10,21.1-5.7L244,141.5c7.4,4.3,10,13.8,5.7,21.1l0,0
		c-4.3,7.4-13.8,10-21.1,5.7L63.1,72.8C55.7,68.5,53.2,59,57.4,51.7z"/>
	<path class="st1" d="M127.7,321.4L127.7,321.4c4.3-7.4,13.8-10,21.1-5.7l165.5,95.5c7.4,4.3,10,13.8,5.7,21.1l0,0
		c-4.3,7.4-13.8,10-21.1,5.7l-165.4-95.6C126.1,338.2,123.5,328.7,127.7,321.4z"/>
	<path class="st1" d="M8,299L8,299c4.3-7.4,13.8-10,21.1-5.7l165.5,95.5c7.4,4.3,10,13.8,5.7,21.1l0,0c-4.3,7.4-13.8,10-21.1,5.7
		L13.7,320.1C6.3,315.8,3.8,306.3,8,299z"/>
	<g>
		<path class="st1" d="M206.8,228.4L206.8,228.4c4.3-7.4,13.8-10,21.1-5.7l165.5,95.5c7.4,4.3,10,13.8,5.7,21.1l0,0
			c-4.3,7.4-13.8,10-21.1,5.7l-165.5-95.5C205.2,245.3,202.7,235.9,206.8,228.4z"/>
		<path class="st1" d="M8,113.7L8,113.7c4.3-7.4,13.8-10,21.1-5.7l165.5,95.4c7.4,4.3,10,13.8,5.7,21.1l0,0
			c-4.3,7.4-13.8,10-21.1,5.7L13.7,134.7C6.3,130.5,3.8,121,8,113.7z"/>
	</g>
	<g>
		<path class="st1" d="M265.5,308.1L265.5,308.1c4.3-7.4,13.8-10,21.1-5.7l165.5,95.5c7.4,4.2,9.9,13.7,5.7,21l0,0
			c-4.3,7.4-13.8,10-21.1,5.7l-165.4-95.5C263.9,324.9,261.4,315.4,265.5,308.1z"/>
		<path class="st1" d="M66.7,193.3L66.7,193.3c4.3-7.4,13.8-10,21.1-5.7l165.5,95.5c7.4,4.3,10,13.8,5.7,21.1l0,0
			c-4.3,7.4-13.8,10-21.1,5.7L72.4,214.4C65.1,210.1,62.5,200.6,66.7,193.3z"/>
	</g>
	<g>
		<path class="st1" d="M302.2,375.5L302.2,375.5c4.3-7.4,13.8-10,21.1-5.7l165.5,95.5c7.4,4.3,10,13.8,5.7,21.1l0,0
			c-4.3,7.4-13.8,10-21.1,5.7l-165.5-95.5C300.5,392.3,298,382.9,302.2,375.5z"/>
		<path class="st1" d="M103.4,260.7L103.4,260.7c4.3-7.4,13.8-10,21.1-5.7l165.4,95.5c7.4,4.3,10,13.8,5.7,21.1l0,0
			c-4.3,7.4-13.8,10-21.1,5.7l-165.4-95.5C101.7,277.5,99.2,268.1,103.4,260.7z"/>
	</g>
</g>
</svg>
