<?xml version="1.0" encoding="utf-8"?>
<!-- Generator: Adobe Illustrator 24.0.1, SVG Export Plug-In . SVG Version: 6.00 Build 0)  -->
<svg version="1.1" id="envato" xmlns="http://www.w3.org/2000/svg" xmlns:xlink="http://www.w3.org/1999/xlink" x="0px" y="0px"
	 width="179px" height="34px" viewBox="0 0 178.6 34.3" style="enable-background:new 0 0 178.6 34.3;" xml:space="preserve">
<style type="text/css">
	.st0{fill:#FFFFFF;}
</style>
<path class="st0" d="M45.6,6.9c-7.6,0-13.1,5.6-13.1,13.4S38,33.6,45.9,33.6c3.6,0.1,7.1-1.2,9.6-3.8c0.5-0.5,0.8-1.1,0.8-1.8
	c0-1.2-0.9-2.2-2.1-2.2c-0.1,0-0.1,0-0.2,0c-0.7,0-1.4,0.3-1.8,0.8c-1.7,1.7-4,2.7-6.4,2.7c-4.2,0.1-7.7-3.2-8-7.4H55
	c1.9,0,2.8-0.9,2.8-2.7c0-0.6,0-1.1-0.1-1.7C56.7,10.9,52.2,6.9,45.6,6.9z M45.6,11.1c4.1,0,6.8,2.6,6.9,6.8H37.9
	C38.3,14,41.7,11,45.6,11.1z M74.1,6.9c-3.4,0-6.5,1.8-8.2,4.7V10c0-2.6-2-2.8-2.5-2.8c-1.3,0-2.5,1-2.5,2.4c0,0.1,0,0.3,0,0.4v20.5
	c-0.1,1.4,0.9,2.7,2.4,2.8c1.4,0.1,2.7-0.9,2.8-2.4c0-0.2,0-0.3,0-0.5v-11c0-4.8,2.7-8.1,6.6-8.1s5.6,2.5,5.6,7.6v11.6
	c-0.2,1.4,0.9,2.7,2.3,2.9c1.4,0.2,2.7-0.9,2.9-2.3c0-0.2,0-0.4,0-0.6V17.3C83.6,12.3,81.1,6.9,74.1,6.9z M107.2,7.2
	c-1.2,0-2.3,0.9-2.6,2.1l-7.1,17.9L90.4,9.3c-0.3-1.2-1.4-2.1-2.7-2.1c-1.4,0-2.6,1.1-2.6,2.5c0,0.5,0.1,1,0.3,1.5l8.2,19.4
	c1,2.3,2.6,2.8,3.8,2.8s2.8-0.5,3.8-2.8l8.3-19.5c0.2-0.5,0.3-0.9,0.3-1.4c0-1.3-1.1-2.4-2.4-2.4C107.3,7.2,107.2,7.2,107.2,7.2z
	 M122.4,6.9c-3.1-0.1-6.2,0.8-8.7,2.6c-0.7,0.4-1.2,1.2-1.2,2.1c0,1.1,0.8,2,1.9,2.1c0,0,0.1,0,0.1,0c0.6,0,1.1-0.2,1.6-0.6
	c1.7-1.2,3.8-1.9,5.9-1.9c3.8,0,6.1,2,6.1,5.4v0.6c-8.7,0-17.5,1.1-17.5,8.6c0,5.4,4.6,7.8,9.2,7.8c3.3,0.2,6.5-1.4,8.4-4.2v1.3
	c-0.1,1.3,0.8,2.5,2.1,2.6c0.1,0,0.2,0,0.3,0c1.3,0.1,2.4-1,2.4-2.3c0-0.1,0-0.3,0-0.4V16.9C133,10.7,129,6.9,122.4,6.9z M126.9,21
	h1.1v1.2c0,4.4-2.8,7.2-7.1,7.2c-1.2,0-5-0.3-5-3.8C115.8,21.5,122.1,21,126.9,21z M146.5,11.9c1.2,0.2,2.2-0.6,2.4-1.8
	c0-0.1,0-0.2,0-0.3c0-1.2-0.9-2.2-2.1-2.2c-0.1,0-0.2,0-0.3,0h-4.7V2.9c0.2-1.4-0.9-2.7-2.3-2.9s-2.7,0.9-2.9,2.3c0,0.2,0,0.4,0,0.6
	v22.5c0,5.2,2.6,8,7.4,8c1.1,0,2.2-0.2,3.3-0.6c0.8-0.3,1.4-1.2,1.4-2.1c0-1.1-0.8-2-1.9-2.1c-0.1,0-0.1,0-0.2,0
	c-0.3,0-0.6,0.1-0.9,0.2c-0.4,0.1-0.7,0.2-1.1,0.2c-2,0-2.9-1.3-2.9-4.1v-13C141.9,11.9,146.5,11.9,146.5,11.9z M163.8,6.9
	c-7.9,0-13.6,5.6-13.6,13.3c-0.1,3.6,1.4,7.1,3.9,9.6c2.6,2.5,6.1,3.8,9.7,3.8c7.8,0,13.7-5.8,13.7-13.4S171.7,6.9,163.8,6.9z
	 M163.8,29.2c-5.4,0-8.2-4.5-8.2-9c0-6.1,4.3-8.9,8.2-8.9c4,0,8.2,2.8,8.2,8.9S167.8,29.2,163.8,29.2z"/>
<path class="st0" d="M23.6,4.6C19.5-0.3,5.9,9.2,6,21.4C6,21.7,5.7,22,5.4,22c-0.2,0-0.4-0.1-0.5-0.3c-1.4-3-1.6-6.5-0.5-9.6
	c0.1-0.3-0.1-0.6-0.3-0.7c-0.2-0.1-0.4,0-0.6,0.2C1.3,14,0,17.1,0,20.4c-0.1,7.2,5.7,13.1,12.8,13.1c0.1,0,0.2,0,0.3,0
	C31.6,33.2,27.4,8.9,23.6,4.6z"/>
</svg>
