<?xml version="1.0" encoding="utf-8"?>
<!-- Generator: Adobe Illustrator 24.0.1, SVG Export Plug-In . SVG Version: 6.00 Build 0)  -->
<svg version="1.1" id="Layer_1" xmlns="http://www.w3.org/2000/svg" xmlns:xlink="http://www.w3.org/1999/xlink" x="0px" y="0px"
	 width="50px" height="50px" viewBox="0 0 50 50" style="enable-background:new 0 0 50 50;" xml:space="preserve">
<style type="text/css">
	.st0{fill:#FFFFFF;}
</style>
<path class="st0" d="M41.42,2.68c-6.75-7.91-28.61,7.41-28.43,27.17c-0.01,0.5-0.41,0.91-0.92,0.92c-0.32,0-0.62-0.17-0.79-0.45
	c-2.25-4.89-2.55-10.45-0.84-15.55c0.15-0.45-0.09-0.93-0.54-1.08c-0.33-0.11-0.69-0.01-0.92,0.24c-3.64,3.88-5.67,9-5.67,14.33
	c-0.13,11.57,9.14,21.06,20.71,21.19c0.16,0,0.32,0,0.49,0C54.33,48.77,47.45,9.73,41.42,2.68z"/>
</svg>
